<?xml version="1.0" encoding="UTF-8" standalone="no"?>
<svg width="200" height="200" viewBox="0 0 200 200" xmlns="http://www.w3.org/2000/svg">
  <!-- Background circle -->
  <circle cx="100" cy="100" r="90" fill="#4285F4" />
  
  <!-- Calendar outline -->
  <rect x="50" y="40" width="100" height="120" rx="5" ry="5" fill="white" />
  
  <!-- Calendar header -->
  <rect x="50" y="40" width="100" height="20" rx="5" ry="5" fill="#DB4437" />
  
  <!-- Calendar grid -->
  <line x1="50" y1="80" x2="150" y2="80" stroke="#E0E0E0" stroke-width="2" />
  <line x1="50" y1="100" x2="150" y2="100" stroke="#E0E0E0" stroke-width="2" />
  <line x1="50" y1="120" x2="150" y2="120" stroke="#E0E0E0" stroke-width="2" />
  <line x1="50" y1="140" x2="150" y2="140" stroke="#E0E0E0" stroke-width="2" />
  
  <line x1="66.66" y1="60" x2="66.66" y2="160" stroke="#E0E0E0" stroke-width="2" />
  <line x1="83.33" y1="60" x2="83.33" y2="160" stroke="#E0E0E0" stroke-width="2" />
  <line x1="100" y1="60" x2="100" y2="160" stroke="#E0E0E0" stroke-width="2" />
  <line x1="116.66" y1="60" x2="116.66" y2="160" stroke="#E0E0E0" stroke-width="2" />
  <line x1="133.33" y1="60" x2="133.33" y2="160" stroke="#E0E0E0" stroke-width="2" />
  
  <!-- Chart bars representing analytics -->
  <rect x="70" y="110" width="15" height="30" fill="#34A853" />
  <rect x="95" y="90" width="15" height="50" fill="#FBBC05" />
  <rect x="120" y="100" width="15" height="40" fill="#EA4335" />
  
  <!-- Text -->
  <text x="100" y="180" font-family="Arial" font-size="12" text-anchor="middle" fill="white">Calendar Analysis</text>
</svg> 