<?xml version="1.0" encoding="UTF-8" standalone="no"?>
<svg width="800" height="500" viewBox="0 0 800 500" xmlns="http://www.w3.org/2000/svg">
  <!-- Browser window background -->
  <rect x="0" y="0" width="800" height="500" rx="10" ry="10" fill="#F5F5F5" />
  
  <!-- App container -->
  <rect x="20" y="20" width="760" height="460" rx="5" ry="5" fill="white" stroke="#E0E0E0" stroke-width="1" />
  
  <!-- Header -->
  <rect x="20" y="20" width="760" height="60" rx="5" ry="5" fill="#4285F4" />
  <text x="50" y="55" font-family="Arial" font-size="22" fill="white">Calendar Analysis</text>
  
  <!-- Logout button -->
  <rect x="660" y="35" width="100" height="30" rx="5" ry="5" fill="#DB4437" />
  <text x="710" y="55" font-family="Arial" font-size="14" text-anchor="middle" fill="white">Logout</text>
  
  <!-- Sidebar -->
  <rect x="20" y="80" width="200" height="400" fill="#FAFAFA" />
  
  <!-- Calendar checkboxes -->
  <rect x="40" y="100" width="160" height="30" rx="5" ry="5" fill="#E0E0E0" />
  <text x="75" y="120" font-family="Arial" font-size="14" fill="#333">Personal</text>
  <rect x="45" y="105" width="20" height="20" rx="3" ry="3" fill="#4285F4" />
  
  <rect x="40" y="140" width="160" height="30" rx="5" ry="5" fill="#E0E0E0" />
  <text x="75" y="160" font-family="Arial" font-size="14" fill="#333">Work</text>
  <rect x="45" y="145" width="20" height="20" rx="3" ry="3" fill="#34A853" />
  
  <rect x="40" y="180" width="160" height="30" rx="5" ry="5" fill="#E0E0E0" />
  <text x="75" y="200" font-family="Arial" font-size="14" fill="#333">Family</text>
  <rect x="45" y="185" width="20" height="20" rx="3" ry="3" fill="#FBBC05" />
  
  <!-- Date pickers -->
  <rect x="40" y="240" width="160" height="30" rx="5" ry="5" fill="#E0E0E0" />
  <text x="120" y="260" font-family="Arial" font-size="14" text-anchor="middle" fill="#333">Start: 2023-01-01</text>
  
  <rect x="40" y="280" width="160" height="30" rx="5" ry="5" fill="#E0E0E0" />
  <text x="120" y="300" font-family="Arial" font-size="14" text-anchor="middle" fill="#333">End: 2023-03-31</text>
  
  <!-- Group by selector -->
  <rect x="40" y="320" width="160" height="30" rx="5" ry="5" fill="#E0E0E0" />
  <text x="120" y="340" font-family="Arial" font-size="14" text-anchor="middle" fill="#333">Group by: Day</text>
  
  <!-- Analyze button -->
  <rect x="40" y="380" width="160" height="40" rx="5" ry="5" fill="#4285F4" />
  <text x="120" y="405" font-family="Arial" font-size="16" text-anchor="middle" fill="white">Analyze</text>
  
  <!-- Chart area -->
  <rect x="240" y="100" width="520" height="250" rx="5" ry="5" fill="#FAFAFA" stroke="#E0E0E0" stroke-width="1" />
  
  <!-- X-axis -->
  <line x1="270" y1="300" x2="730" y2="300" stroke="#333" stroke-width="2" />
  <!-- Y-axis -->
  <line x1="270" y1="300" x2="270" y2="120" stroke="#333" stroke-width="2" />
  
  <!-- Chart bars -->
  <rect x="290" y="200" width="20" height="100" fill="#4285F4" />
  <rect x="320" y="150" width="20" height="150" fill="#4285F4" />
  <rect x="350" y="220" width="20" height="80" fill="#4285F4" />
  
  <rect x="290" y="250" width="20" height="50" fill="#34A853" />
  <rect x="320" y="240" width="20" height="60" fill="#34A853" />
  <rect x="350" y="230" width="20" height="70" fill="#34A853" />
  
  <rect x="290" y="270" width="20" height="30" fill="#FBBC05" />
  <rect x="320" y="280" width="20" height="20" fill="#FBBC05" />
  <rect x="350" y="260" width="20" height="40" fill="#FBBC05" />
  
  <!-- More bars with regular intervals -->
  <rect x="380" y="180" width="20" height="120" fill="#4285F4" />
  <rect x="410" y="190" width="20" height="110" fill="#4285F4" />
  <rect x="440" y="170" width="20" height="130" fill="#4285F4" />
  
  <rect x="380" y="240" width="20" height="60" fill="#34A853" />
  <rect x="410" y="230" width="20" height="70" fill="#34A853" />
  <rect x="440" y="250" width="20" height="50" fill="#34A853" />
  
  <rect x="380" y="275" width="20" height="25" fill="#FBBC05" />
  <rect x="410" y="265" width="20" height="35" fill="#FBBC05" />
  <rect x="440" y="270" width="20" height="30" fill="#FBBC05" />
  
  <!-- Legend -->
  <rect x="240" y="360" width="520" height="50" rx="5" ry="5" fill="#FAFAFA" stroke="#E0E0E0" stroke-width="1" />
  
  <rect x="260" y="375" width="20" height="20" fill="#4285F4" />
  <text x="290" y="390" font-family="Arial" font-size="14" fill="#333">Personal</text>
  
  <rect x="360" y="375" width="20" height="20" fill="#34A853" />
  <text x="390" y="390" font-family="Arial" font-size="14" fill="#333">Work</text>
  
  <rect x="460" y="375" width="20" height="20" fill="#FBBC05" />
  <text x="490" y="390" font-family="Arial" font-size="14" fill="#333">Family</text>
  
  <!-- Summary area -->
  <rect x="240" y="420" width="520" height="60" rx="5" ry="5" fill="#FAFAFA" stroke="#E0E0E0" stroke-width="1" />
  <text x="260" y="445" font-family="Arial" font-size="14" fill="#333">Total hours: Personal (45h), Work (30h), Family (15h)</text>
  <text x="260" y="465" font-family="Arial" font-size="14" fill="#333">Most active day: 2023-02-15 with 8 hours of events</text>
</svg> 